<svg id="_x31__x2C_5" enable-background="new 0 0 24 24" height="512" viewBox="0 0 24 24" width="512" xmlns="http://www.w3.org/2000/svg"><path d="m21.25 3.444c0-1.405-1.139-2.544-2.544-2.544h-13.412c-1.405 0-2.544 1.139-2.544 2.544v17.112c0 1.405 1.139 2.544 2.544 2.544h13.412c1.405 0 2.544-1.139 2.544-2.544z" fill="#eceff1"/><path d="m7.251 15c-.266 0-.523-.141-.659-.391l-1.5-2.75c-.122-.224-.122-.495 0-.719l1.5-2.75c.197-.364.652-.498 1.018-.299.363.199.496.655.298 1.018l-1.304 2.391 1.304 2.391c.198.364.064.819-.299 1.018-.114.062-.237.091-.358.091z"/><path d="m16.749 15c-.121 0-.244-.029-.358-.092-.363-.198-.497-.654-.299-1.018l1.304-2.391-1.304-2.391c-.198-.364-.064-.819.299-1.018.366-.199.82-.064 1.018.299l1.5 2.75c.122.224.122.495 0 .719l-1.5 2.75c-.137.251-.394.392-.66.392z"/><path d="m12 13.759c-.414 0-.75-.336-.75-.75 0-.967.483-1.894 1.326-2.541.266-.203.424-.534.424-.885 0-.597-.448-1.083-1-1.083s-1 .486-1 1.083c0 .414-.336.75-.75.75s-.75-.335-.75-.75c0-1.424 1.121-2.583 2.5-2.583s2.5 1.159 2.5 2.583c0 .813-.378 1.589-1.01 2.075-.276.212-.74.67-.74 1.351 0 .414-.336.75-.75.75z"/><circle cx="12" cy="15.25" r=".75"/><path d="m19.25 24h-14.5c-1.517 0-2.75-1.233-2.75-2.75v-18.5c0-1.517 1.233-2.75 2.75-2.75h14.5c1.517 0 2.75 1.233 2.75 2.75v18.5c0 1.517-1.233 2.75-2.75 2.75zm-14.5-22.5c-.689 0-1.25.561-1.25 1.25v18.5c0 .689.561 1.25 1.25 1.25h14.5c.689 0 1.25-.561 1.25-1.25v-18.5c0-.689-.561-1.25-1.25-1.25z"/></svg>